<?xml version="1.0" encoding="UTF-8" standalone="no"?>
<!-- Created with Inkscape (http://www.inkscape.org/) -->

<svg
   xmlns:dc="http://purl.org/dc/elements/1.1/"
   xmlns:cc="http://creativecommons.org/ns#"
   xmlns:rdf="http://www.w3.org/1999/02/22-rdf-syntax-ns#"
   xmlns:svg="http://www.w3.org/2000/svg"
   xmlns="http://www.w3.org/2000/svg"
   xmlns:sodipodi="http://sodipodi.sourceforge.net/DTD/sodipodi-0.dtd"
   xmlns:inkscape="http://www.inkscape.org/namespaces/inkscape"
   width="18"
   height="18"
   viewBox="0 0 18 18"
   version="1.1"
   id="svg8"
   inkscape:version="0.92.1 r15371"
   sodipodi:docname="ConvertText.svg">
  <defs
     id="defs2" />
  <sodipodi:namedview
     id="base"
     pagecolor="#ffffff"
     bordercolor="#666666"
     borderopacity="1.0"
     inkscape:pageopacity="0.0"
     inkscape:pageshadow="2"
     inkscape:zoom="15.839192"
     inkscape:cx="-12.424188"
     inkscape:cy="5.3597777"
     inkscape:document-units="mm"
     inkscape:current-layer="svg8"
     showgrid="false"
     units="px"
     inkscape:window-width="1920"
     inkscape:window-height="1017"
     inkscape:window-x="-8"
     inkscape:window-y="-8"
     inkscape:window-maximized="1" />
  <metadata
     id="metadata5">
    <rdf:RDF>
      <cc:Work
         rdf:about="">
        <dc:format>image/svg+xml</dc:format>
        <dc:type
           rdf:resource="http://purl.org/dc/dcmitype/StillImage" />
        <dc:title></dc:title>
      </cc:Work>
    </rdf:RDF>
  </metadata>
  <path
     style="opacity:1;fill:none;fill-opacity:1;stroke:#0000ff;stroke-width:0.95579702;stroke-linecap:round;stroke-linejoin:round;stroke-miterlimit:4;stroke-dasharray:none;stroke-dashoffset:0;stroke-opacity:1"
     d="M 17.450519,9.0310047 A 8.4472232,8.4721043 0 0 1 9.0032957,17.503101 8.4472232,8.4721043 0 0 1 0.55607257,9.0310047 8.4472232,8.4721043 0 0 1 9.0032957,0.5589027 8.4472232,8.4721043 0 0 1 17.450519,9.0310047 Z"
     id="path4532"
     inkscape:connector-curvature="0" />
  <path
     d="m 7.7557927,4.4530048 -0.8803711,2.0602759 -0.3509174,0.069176 0.2524147,-2.8828569 0.055409,-0.06144 q 0.7695542,0.015323 1.4775451,0.023058 0.7141469,0.00744 1.3975109,0.00744 h 1.6991767 q 0.707989,0 1.440606,-0.00744 0.738772,-0.00743 1.514483,-0.023058 l 0.02463,0.06144 -0.806494,2.8136663 -0.350916,0.069176 -0.08003,-2.1294665 h -1.797688 l -1.145097,7.4954494 q -0.06772,0.461261 -0.129286,0.837949 -0.05541,0.376702 -0.09234,0.6842 -0.01847,0.192189 0.1723797,0.26138 l 0.837275,0.29982 -0.04925,0.39207 q -1.1389407,-0.02305 -1.9885297,-0.02305 -0.9111524,0 -1.9823731,0.02305 l 0.024625,-0.39207 0.9296224,-0.315188 q 0.1723802,-0.05385 0.209319,-0.238321 0.055409,-0.299821 0.116978,-0.6842 0.061569,-0.384379 0.1292858,-0.84564 L 9.5350143,4.4529756 Z"
     style="font-style:italic;font-variant:normal;font-weight:bold;font-stretch:normal;font-size:10.58333302px;font-family:Constantia;-inkscape-font-specification:'Constantia, Bold Italic';font-variant-ligatures:normal;font-variant-caps:normal;font-variant-numeric:normal;font-feature-settings:normal;text-align:center;writing-mode:lr-tb;text-anchor:middle;fill:#0000ff;fill-opacity:1;stroke-width:0.35223401"
     id="path4522"
     inkscape:connector-curvature="0" />
  <path
     style="opacity:1;fill:#ffffff;fill-opacity:1;stroke:#ffffff;stroke-width:0.29841346;stroke-linecap:round;stroke-linejoin:round;stroke-miterlimit:4;stroke-dasharray:none;stroke-dashoffset:0;stroke-opacity:1"
     d="M 0.29392163,5.8449869 H 4.3228453 c 0.025891,0 0.046717,0.022665 0.046717,0.046871 v 6.2782891 c 0,0.02645 -0.020841,0.04687 -0.046717,0.04687 H 0.29392163 c -0.0258802,0 -0.0467149,-0.02266 -0.0467149,-0.04687 V 5.8918571 c 0,-0.026449 0.0208347,-0.046871 0.0467149,-0.04687 z"
     id="rect4534"
     inkscape:connector-curvature="0" />
  <path
     d="m 0,7.4600368 h 5.0314268 v -1.07487 l 2.2590084,2.64584 -2.2590084,2.6458302 v -1.03353 H 0 Z"
     style="fill:#0000ff;fill-opacity:1;stroke-width:0.24074548"
     id="path4529"
     inkscape:connector-curvature="0" />
  <g
     aria-label="T"
     style="font-style:normal;font-weight:normal;font-size:10.58333302px;line-height:1.25;font-family:sans-serif;text-align:center;letter-spacing:0px;word-spacing:0px;text-anchor:middle;fill:#0000ff;fill-opacity:1;stroke:none;stroke-width:0.26458332"
     id="text4510"
     transform="matrix(1.1790577,0,0,1.1937302,-33.399929,-143.57169)" />
  <g
     aria-label="➡"
     style="font-style:normal;font-weight:normal;font-size:10.58333302px;line-height:1.25;font-family:sans-serif;text-align:center;letter-spacing:0px;word-spacing:0px;text-anchor:middle;fill:#0000ff;fill-opacity:1;stroke:none;stroke-width:0.26458332"
     id="text4527"
     transform="matrix(0.86276558,0,0,1.1937302,-36.979289,-151.9132)" />
  <g
     inkscape:label="レイヤー 1"
     inkscape:groupmode="layer"
     id="layer1"
     transform="translate(0,-292.23748)">
    <flowRoot
       xml:space="preserve"
       id="flowRoot4496"
       style="font-style:normal;font-weight:normal;font-size:40px;line-height:1.25;font-family:sans-serif;text-align:center;letter-spacing:0px;word-spacing:0px;text-anchor:middle;fill:#000000;fill-opacity:1;stroke:none"
       transform="scale(0.26458333)"><flowRegion
         id="flowRegion4498"><rect
           id="rect4500"
           width="78.791901"
           height="44.446712"
           x="195.96959"
           y="344.70224" /></flowRegion><flowPara
         id="flowPara4502"></flowPara></flowRoot>  </g>
</svg>
