<?xml version="1.0" encoding="UTF-8" standalone="no"?>
<!-- Created with Inkscape (http://www.inkscape.org/) -->

<svg
   xmlns:dc="http://purl.org/dc/elements/1.1/"
   xmlns:cc="http://creativecommons.org/ns#"
   xmlns:rdf="http://www.w3.org/1999/02/22-rdf-syntax-ns#"
   xmlns:svg="http://www.w3.org/2000/svg"
   xmlns="http://www.w3.org/2000/svg"
   xmlns:sodipodi="http://sodipodi.sourceforge.net/DTD/sodipodi-0.dtd"
   xmlns:inkscape="http://www.inkscape.org/namespaces/inkscape"
   width="18"
   height="18"
   viewBox="0 0 18 18"
   version="1.1"
   id="svg8"
   inkscape:version="0.91 r13725"
   sodipodi:docname="ConvertText.svg">
  <defs
     id="defs2" />
  <sodipodi:namedview
     id="base"
     pagecolor="#ffffff"
     bordercolor="#666666"
     borderopacity="1.0"
     inkscape:pageopacity="0.0"
     inkscape:pageshadow="2"
     inkscape:zoom="31.678384"
     inkscape:cx="5.6269571"
     inkscape:cy="6.7013929"
     inkscape:document-units="mm"
     inkscape:current-layer="svg8"
     showgrid="false"
     units="px"
     inkscape:window-width="1920"
     inkscape:window-height="1137"
     inkscape:window-x="-8"
     inkscape:window-y="-8"
     inkscape:window-maximized="1" />
  <metadata
     id="metadata5">
    <rdf:RDF>
      <cc:Work
         rdf:about="">
        <dc:format>image/svg+xml</dc:format>
        <dc:type
           rdf:resource="http://purl.org/dc/dcmitype/StillImage" />
        <dc:title></dc:title>
      </cc:Work>
    </rdf:RDF>
  </metadata>
  <path
     style="opacity:1;fill:#ffffff;fill-opacity:1;stroke:none;stroke-width:2.32542753;stroke-linecap:round;stroke-linejoin:round;stroke-miterlimit:4;stroke-dasharray:none;stroke-opacity:1"
     d="M 17.845999,8.9985018 A 8.8374996,8.8374987 0 0 1 9.0084991,17.836 8.8374996,8.8374987 0 0 1 0.17099953,8.9985018 8.8374996,8.8374987 0 0 1 9.0084991,0.16100311 8.8374996,8.8374987 0 0 1 17.845999,8.9985018 Z"
     id="path4168" />
  <path
     style="opacity:1;fill:none;fill-opacity:1;stroke:#ff0000;stroke-width:1.05157602;stroke-linecap:round;stroke-linejoin:round;stroke-miterlimit:4;stroke-dasharray:none;stroke-dashoffset:0;stroke-opacity:1"
     d="M 17.402284,8.981003 A 8.4242119,8.4242168 0 0 1 8.9780725,17.405212 8.4242119,8.4242168 0 0 1 0.55386061,8.981003 8.4242119,8.4242168 0 0 1 8.9780725,0.55678846 8.4242119,8.4242168 0 0 1 17.402284,8.981003 Z"
     id="path4532"
     inkscape:connector-curvature="0" />
  <path
     style="opacity:1;fill:#ffffff;fill-opacity:1;stroke:#ffffff;stroke-width:0.17668483;stroke-linecap:round;stroke-linejoin:round;stroke-miterlimit:4;stroke-dasharray:none;stroke-dashoffset:0;stroke-opacity:1"
     d="m 0.20653437,6.3970301 1.74145273,0 c 0.011191,0 0.020193,0.018382 0.020193,0.038014 l 0,5.0919059 c 0,0.02145 -0.00901,0.03802 -0.020193,0.03802 l -1.74145273,0 c -0.0111864,0 -0.0201919,-0.01838 -0.0201919,-0.03802 l 0,-5.0919065 c 0,-0.021452 0.009006,-0.038014 0.0201919,-0.038013 z"
     id="rect4534"
     inkscape:connector-curvature="0" />
  <path
     d="m 0,7.7380388 3.8114187,0 0,-0.8504466 1.7112496,2.0934118 -1.7112496,2.093404 0,-0.817738 -3.8114187,0 z"
     style="fill:#ff0000;fill-opacity:1;stroke-width:0.21072896"
     id="path4529"
     inkscape:connector-curvature="0" />
  <g
     inkscape:label="レイヤー 1"
     inkscape:groupmode="layer"
     id="layer1"
     transform="translate(0,-292.23748)">
    <flowRoot
       xml:space="preserve"
       id="flowRoot4496"
       style="font-style:normal;font-weight:normal;font-size:40px;line-height:1.25;font-family:sans-serif;text-align:center;letter-spacing:0px;word-spacing:0px;text-anchor:middle;fill:#000000;fill-opacity:1;stroke:none"
       transform="scale(0.26458333)"><flowRegion
         id="flowRegion4498"><rect
           id="rect4500"
           width="78.791901"
           height="44.446712"
           x="195.96959"
           y="344.70224" /></flowRegion><flowPara
         id="flowPara4502" /></flowRoot>  </g>
  <g
     style="font-style:normal;font-variant:normal;font-weight:bold;font-stretch:normal;font-size:14.04124928px;line-height:125%;font-family:'Meiryo UI';-inkscape-font-specification:'Meiryo UI, Bold';text-align:start;letter-spacing:0px;word-spacing:0px;writing-mode:lr-tb;text-anchor:start;fill:#ff0000;fill-opacity:1;stroke:none;stroke-width:1px;stroke-linecap:butt;stroke-linejoin:miter;stroke-opacity:1"
     id="text4161"
     transform="translate(-0.02522364,-0.05000132)">
    <path
       d="m 13.528308,5.5789658 -3.393759,0 0,8.6180912 -2.2625061,0 0,-8.6180912 -3.393759,0 0,-1.7140197 9.0500241,0 0,1.7140197 z"
       id="path4166"
       inkscape:connector-curvature="0" />
  </g>
</svg>
