<?xml version="1.0" encoding="UTF-8" standalone="no"?>
<svg
   xmlns:dc="http://purl.org/dc/elements/1.1/"
   xmlns:cc="http://creativecommons.org/ns#"
   xmlns:rdf="http://www.w3.org/1999/02/22-rdf-syntax-ns#"
   xmlns:svg="http://www.w3.org/2000/svg"
   xmlns="http://www.w3.org/2000/svg"
   id="svg7007"
   version="1.1"
   viewBox="0 0 18 18"
   height="18"
   width="18">
  <defs
     id="defs7001" />
  <metadata
     id="metadata7004">
    <rdf:RDF>
      <cc:Work
         rdf:about="">
        <dc:format>image/svg+xml</dc:format>
        <dc:type
           rdf:resource="http://purl.org/dc/dcmitype/StillImage" />
        <dc:title></dc:title>
      </cc:Work>
    </rdf:RDF>
  </metadata>
  <path
     id="rect4492"
     d="M 0.43512372,0.04100038 H 17.611852 c 0.200346,0 0.361636,0.16128956 0.361636,0.36163578 V 17.579364 c 0,0.200346 -0.16129,0.361636 -0.361636,0.361636 H 0.43512372 c -0.20034621,0 -0.36163577,-0.16129 -0.36163577,-0.361636 V 0.40263616 c 0,-0.20034622 0.16128956,-0.36163578 0.36163577,-0.36163578 z"
     style="opacity:1;fill:#ffffff;fill-opacity:1;stroke:none;stroke-width:2.71315575;stroke-linecap:round;stroke-linejoin:round;stroke-miterlimit:4;stroke-dasharray:none;stroke-dashoffset:0;stroke-opacity:1" />
  <path
     id="path4154-1-4-0-0-1"
     d="M 17.794955,8.9910004 A 8.7714672,8.704505 0 0 1 9.0234878,17.695505 8.7714672,8.704505 0 0 1 0.25202058,8.9910004 8.7714672,8.704505 0 0 1 9.0234878,0.28649544 8.7714672,8.704505 0 0 1 17.794955,8.9910004 Z"
     style="opacity:1;fill:#ffffff;fill-opacity:1;stroke:#ff0000;stroke-width:0.3882958;stroke-linecap:round;stroke-linejoin:round;stroke-miterlimit:4;stroke-dasharray:none;stroke-opacity:1" />
  <g
     transform="translate(0,-292.23748)"
     id="layer1" />
  <path
     id="path4526"
     d="M 12.374369,7.7722054 8.4679192,10.027595 4.56147,12.282984 l 0,-4.5107788 0,-4.510779 3.9064495,2.2553897 z"
     style="opacity:1;fill:#ff0000;fill-opacity:1;stroke:none;stroke-width:1;stroke-linecap:round;stroke-linejoin:round;stroke-miterlimit:4;stroke-dasharray:none;stroke-dashoffset:0;stroke-opacity:1"
     transform="matrix(1.5252525,0,0,1.2869256,-2.9925604,-1.0112498)" />
</svg>
