<?xml version="1.0" encoding="UTF-8" standalone="no"?>
<!-- Created with Inkscape (http://www.inkscape.org/) -->

<svg
   xmlns:dc="http://purl.org/dc/elements/1.1/"
   xmlns:cc="http://creativecommons.org/ns#"
   xmlns:rdf="http://www.w3.org/1999/02/22-rdf-syntax-ns#"
   xmlns:svg="http://www.w3.org/2000/svg"
   xmlns="http://www.w3.org/2000/svg"
   xmlns:sodipodi="http://sodipodi.sourceforge.net/DTD/sodipodi-0.dtd"
   xmlns:inkscape="http://www.inkscape.org/namespaces/inkscape"
   width="30"
   height="30"
   viewBox="0 0 30 30"
   id="svg4249"
   version="1.1"
   inkscape:version="0.91 r13725"
   sodipodi:docname="mic_enable.svg">
  <defs
     id="defs4251" />
  <sodipodi:namedview
     id="base"
     pagecolor="#ffffff"
     bordercolor="#666666"
     borderopacity="1.0"
     inkscape:pageopacity="0.0"
     inkscape:pageshadow="2"
     inkscape:zoom="5.6"
     inkscape:cx="-42.499536"
     inkscape:cy="57.098302"
     inkscape:document-units="px"
     inkscape:current-layer="layer1"
     showgrid="false"
     inkscape:window-width="1920"
     inkscape:window-height="1137"
     inkscape:window-x="-8"
     inkscape:window-y="-8"
     inkscape:window-maximized="1"
     units="px"
     fit-margin-top="0"
     fit-margin-left="0"
     fit-margin-right="0"
     fit-margin-bottom="0" />
  <metadata
     id="metadata4254">
    <rdf:RDF>
      <cc:Work
         rdf:about="">
        <dc:format>image/svg+xml</dc:format>
        <dc:type
           rdf:resource="http://purl.org/dc/dcmitype/StillImage" />
        <dc:title></dc:title>
      </cc:Work>
    </rdf:RDF>
  </metadata>
  <g
     inkscape:label="レイヤー 1"
     inkscape:groupmode="layer"
     id="layer1"
     transform="translate(-0.08713429,-1022.4431)">
    <path
       style="color:#000000;font-style:normal;font-variant:normal;font-weight:normal;font-stretch:normal;font-size:medium;line-height:normal;font-family:sans-serif;text-indent:0;text-align:start;text-decoration:none;text-decoration-line:none;text-decoration-style:solid;text-decoration-color:#000000;letter-spacing:normal;word-spacing:normal;text-transform:none;direction:ltr;block-progression:tb;writing-mode:lr-tb;baseline-shift:baseline;text-anchor:start;white-space:normal;clip-rule:nonzero;display:inline;overflow:visible;visibility:visible;opacity:1;isolation:auto;mix-blend-mode:normal;color-interpolation:sRGB;color-interpolation-filters:linearRGB;solid-color:#000000;solid-opacity:1;fill:#0000ff;fill-opacity:1;fill-rule:nonzero;stroke:none;stroke-width:1.29999995;stroke-linecap:round;stroke-linejoin:round;stroke-miterlimit:4;stroke-dasharray:none;stroke-dashoffset:0;stroke-opacity:1;color-rendering:auto;image-rendering:auto;shape-rendering:auto;text-rendering:auto;enable-background:accumulate"
       d="m 15.086175,1022.4431 c -8.2771235,0 -14.99904071,6.7234 -14.99904071,15 0,8.2766 6.72191721,15 14.99904071,15 8.277123,0 15.000959,-6.7234 15.000959,-15 0,-8.2766 -6.723836,-15 -15.000959,-15 z m 0,1.2733 c 7.589374,0 13.729528,6.1378 13.729528,13.7267 0,7.5889 -6.140154,13.7267 -13.729528,13.7267 -7.5893642,0 -13.7276092,-6.1378 -13.7276092,-13.7267 0,-7.5889 6.138245,-13.7267 13.7276092,-13.7267 z"
       id="path4154-1-4-9"
       inkscape:connector-curvature="0" />
    <path
       inkscape:connector-curvature="0"
       d="m 15.087129,1040.7184 c -1.84189,0 -3.33197,-1.5731 -3.33197,-3.4908 l 0,-7.8433 c 0,-1.9393 1.49008,-3.4907 3.33197,-3.4907 1.8419,0 3.33198,1.573 3.33198,3.4907 l 0,7.8218 c 0,1.9392 -1.49008,3.5123 -3.33198,3.5123 l 0,0 z m 4.53231,-5.7102 2.23512,0 0,2.9736 c 0,3.3184 -2.50416,6.0549 -5.64987,6.2488 l 0,2.4349 3.35267,0 0,2.3271 -8.94045,0 0,-2.3271 3.35267,0 0,-2.4349 c -3.14571,-0.1939 -5.6498697,-2.9304 -5.6498697,-6.2488 l 0,-2.9736 2.2351097,0 0,2.9736 c 0,2.1763 1.69703,3.9217 3.76658,3.9217 l 1.51077,0 c 2.09024,0 3.76658,-1.767 3.76658,-3.9217 l 0,-2.9736 0.0207,0 z"
       id="path4142-5-8-1"
       style="fill:#0000ff;fill-opacity:1;stroke:none;stroke-width:1.29999995;stroke-miterlimit:4;stroke-dasharray:none;stroke-opacity:1" />
  </g>
</svg>
