<?xml version="1.0" encoding="UTF-8" standalone="no"?>
<svg
   xmlns:dc="http://purl.org/dc/elements/1.1/"
   xmlns:cc="http://creativecommons.org/ns#"
   xmlns:rdf="http://www.w3.org/1999/02/22-rdf-syntax-ns#"
   xmlns:svg="http://www.w3.org/2000/svg"
   xmlns="http://www.w3.org/2000/svg"
   xmlns:sodipodi="http://sodipodi.sourceforge.net/DTD/sodipodi-0.dtd"
   xmlns:inkscape="http://www.inkscape.org/namespaces/inkscape"
   id="svg4499"
   version="1.1"
   viewBox="0 0 18 18"
   height="18"
   width="18"
   inkscape:version="0.91 r13725"
   sodipodi:docname="StartRec.svg">
  <sodipodi:namedview
     pagecolor="#ffffff"
     bordercolor="#666666"
     borderopacity="1"
     objecttolerance="10"
     gridtolerance="10"
     guidetolerance="10"
     inkscape:pageopacity="0"
     inkscape:pageshadow="2"
     inkscape:window-width="1920"
     inkscape:window-height="1137"
     id="namedview4162"
     showgrid="false"
     inkscape:zoom="26.222222"
     inkscape:cx="15.98638"
     inkscape:cy="6.4113499"
     inkscape:window-x="-8"
     inkscape:window-y="-8"
     inkscape:window-maximized="1"
     inkscape:current-layer="svg4499" />
  <defs
     id="defs4493" />
  <metadata
     id="metadata4496">
    <rdf:RDF>
      <cc:Work
         rdf:about="">
        <dc:format>image/svg+xml</dc:format>
        <dc:type
           rdf:resource="http://purl.org/dc/dcmitype/StillImage" />
        <dc:title></dc:title>
      </cc:Work>
    </rdf:RDF>
  </metadata>
  <path
     style="opacity:1;fill:#ffffff;fill-opacity:1;stroke:none;stroke-width:2.72900009;stroke-linecap:round;stroke-linejoin:round;stroke-miterlimit:4;stroke-dasharray:none;stroke-opacity:1"
     d="M 17.9,9 A 8.8999996,8.8999996 0 0 1 9,17.9 8.8999996,8.8999996 0 0 1 0.10000038,9 8.8999996,8.8999996 0 0 1 9,0.10000038 8.8999996,8.8999996 0 0 1 17.9,9 Z"
     id="path4704" />
  <path
     id="path5044"
     d="M 17.526316,9 A 8.5263157,8.5263157 0 0 1 9,17.526316 8.5263157,8.5263157 0 0 1 0.47368431,9 8.5263157,8.5263157 0 0 1 9,0.47368431 8.5263157,8.5263157 0 0 1 17.526316,9 Z"
     style="opacity:1;fill:none;fill-opacity:1;stroke:#ff0000;stroke-width:0.94736844;stroke-linecap:round;stroke-linejoin:round;stroke-miterlimit:4;stroke-dasharray:none;stroke-dashoffset:0;stroke-opacity:1" />
  <path
     id="path5046"
     d="M 14.684308,9 A 5.6843076,5.6842079 0 0 1 9,14.684208 5.6843076,5.6842079 0 0 1 3.3156924,9 5.6843076,5.6842079 0 0 1 9,3.3157921 5.6843076,5.6842079 0 0 1 14.684308,9 Z"
     style="opacity:1;fill:#ff0000;fill-opacity:1;stroke:none;stroke-width:1.34095681;stroke-linecap:round;stroke-linejoin:round;stroke-miterlimit:4;stroke-dasharray:none;stroke-dashoffset:0;stroke-opacity:1" />
  <g
     transform="translate(0,-292.23748)"
     id="layer1" />
</svg>
